<?xml version="1.0" encoding="UTF-8" standalone="no"?>
<svg
   width="101"
   height="128.00024"
   viewBox="0 0 101 128.00024"
   fill="none"
   version="1.1"
   id="svg23"
   sodipodi:docname="fantom-logo-white-cropped.svg"
   inkscape:version="1.1.1 (3bf5ae0d25, 2021-09-20)"
   xmlns:inkscape="http://www.inkscape.org/namespaces/inkscape"
   xmlns:sodipodi="http://sodipodi.sourceforge.net/DTD/sodipodi-0.dtd"
   xmlns="http://www.w3.org/2000/svg"
   xmlns:svg="http://www.w3.org/2000/svg">
  <defs
     id="defs27" />
  <sodipodi:namedview
     id="namedview25"
     pagecolor="#505050"
     bordercolor="#eeeeee"
     borderopacity="1"
     inkscape:pageshadow="0"
     inkscape:pageopacity="0"
     inkscape:pagecheckerboard="0"
     showgrid="false"
     fit-margin-top="0"
     fit-margin-left="0"
     fit-margin-right="0"
     fit-margin-bottom="0"
     inkscape:zoom="3.4296751"
     inkscape:cx="41.549125"
     inkscape:cy="66.624387"
     inkscape:window-width="1920"
     inkscape:window-height="1001"
     inkscape:window-x="-9"
     inkscape:window-y="-9"
     inkscape:window-maximized="1"
     inkscape:current-layer="svg23" />
  <path
     d="m 44.9555,1.2261397 c 3.111,-1.63485295 7.8447,-1.63485295 10.9557,0 L 87.6562,17.9083 c 1.8736,0.9846 2.9026,2.4518 3.087,3.9664 h 0.0302 v 83.8533 c -0.0412,1.652 -1.0799,3.293 -3.1172,4.364 l -31.745,16.682 c -3.111,1.635 -7.8447,1.635 -10.9557,0 L 13.2106,110.092 c -2.0288,-1.066 -3.0024,-2.719 -3.0506,-4.364 -0.0048,-0.162 -0.0054,-0.297 -8e-4,-0.409 l -2e-4,-82.9057 c -0.0032,-0.0908 -0.0035,-0.1815 -9e-4,-0.2718 l 0.0019,-0.2668 0.0142,-10e-5 c 0.141,-1.5312 1.1233,-2.9609 3.0364,-3.9663 z M 85.776,68.656 55.9112,84.3502 c -3.111,1.6349 -7.8447,1.6349 -10.9557,0 L 15.156,68.691 v 36.871 l 29.7995,15.577 c 1.6827,0.895 3.4292,1.767 5.1369,1.878 l 0.341,0.011 c 1.7795,0.006 3.5071,-0.893 5.259,-1.744 L 85.776,105.428 Z M 4.9967,103.905 c 0,3.212 0.37529,5.324 1.12042,6.812 0.6176,1.233 1.54426,2.175 3.23629,3.322 L 9.45,114.104 c 0.37133,0.249 0.7804,0.51 1.2783,0.816 l 0.5872,0.358 1.8031,1.083 -2.5861,4.254 -2.01816,-1.213 -0.33922,-0.207 C 7.59159,118.836 7.10795,118.529 6.65683,118.226 1.8345,114.991 0.0360243,111.465 5.37036e-4,104.128 L 0,103.905 Z M 47.9343,46.1808 c -0.2311,0.079 -0.4477,0.1703 -0.6452,0.2741 L 15.5442,63.1371 c -0.0333,0.0175 -0.0651,0.0348 -0.0953,0.0519 l -0.0269,0.0156 0.0498,0.0283 0.0724,0.0391 31.7449,16.6822 c 0.1975,0.1038 0.4141,0.1951 0.6452,0.2741 z m 4.9982,0 v 34.0475 c 0.2311,-0.079 0.4477,-0.1703 0.6451,-0.2741 L 85.3226,63.272 c 0.0333,-0.0175 0.0651,-0.0348 0.0953,-0.0519 l 0.0269,-0.0155 -0.0499,-0.0284 -0.0723,-0.0391 -31.745,-16.6822 c -0.1974,-0.1038 -0.414,-0.1951 -0.6451,-0.2741 z M 85.776,27.823 57.299,42.788 85.776,57.753 Z m -70.62,0.035 v 29.86 L 43.567,42.788 Z M 53.5776,5.6221597 c -1.6508,-0.86753 -4.6376,-0.86753 -6.2885,0 L 15.5442,22.3044 c -0.0333,0.0175 -0.0651,0.0348 -0.0953,0.0519 l -0.0269,0.0155 0.0498,0.0284 0.0724,0.0391 31.7449,16.6822 c 1.6509,0.8675 4.6377,0.8675 6.2885,0 l 31.745,-16.6822 c 0.0333,-0.0175 0.0651,-0.0348 0.0953,-0.052 l 0.0269,-0.0155 -0.0499,-0.0284 -0.0723,-0.039 z m 36.8899,1.82938 2.0182,1.2127001 0.3392,0.20721 c 0.5835,0.35837 1.0671,0.66625 1.5183,0.9688599 C 99.1655,13.075 100.964,16.6017 100.999,23.9381 L 101,24.1616 h -4.9967 c 0,-3.2128 -0.3753,-5.3244 -1.1204,-6.8121 -0.6176,-1.233 -1.5443,-2.1753 -3.2363,-3.3219 L 91.55,13.9625 c -0.3713,-0.2491 -0.7804,-0.51 -1.2783,-0.8167 L 89.6845,12.788 87.8814,11.7054 Z"
     fill="#ffffff"
     id="path19" />
</svg>
