<?xml version="1.0" encoding="UTF-8" standalone="no"?>
<svg
   width="41.335968"
   height="29.565954"
   viewBox="0 0 41.335968 29.565954"
   fill="none"
   version="1.1"
   id="svg19"
   sodipodi:docname="gitbook.svg"
   inkscape:version="1.1.1 (3bf5ae0d25, 2021-09-20)"
   xmlns:inkscape="http://www.inkscape.org/namespaces/inkscape"
   xmlns:sodipodi="http://sodipodi.sourceforge.net/DTD/sodipodi-0.dtd"
   xmlns="http://www.w3.org/2000/svg"
   xmlns:svg="http://www.w3.org/2000/svg">
   <defs
      id="defs23" />
   <sodipodi:namedview
      id="namedview21"
      pagecolor="#505050"
      bordercolor="#eeeeee"
      borderopacity="1"
      inkscape:pageshadow="0"
      inkscape:pageopacity="0"
      inkscape:pagecheckerboard="0"
      showgrid="false"
      fit-margin-top="0"
      fit-margin-left="0"
      fit-margin-right="0"
      fit-margin-bottom="0"
      inkscape:zoom="19.575"
      inkscape:cx="24.393359"
      inkscape:cy="19.591315"
      inkscape:window-width="1920"
      inkscape:window-height="1001"
      inkscape:window-x="-9"
      inkscape:window-y="-9"
      inkscape:window-maximized="1"
      inkscape:current-layer="svg19" />
   <path
      d="m 18.425966,24.925954 c 0.725,0 1.16,0.58 1.16,1.16 0,0.725 -0.58,1.16 -1.16,1.16 -0.725,0 -1.16,-0.58 -1.16,-1.16 0,-0.58 0.435,-1.16 1.16,-1.16 z m 18.995,-7.395 c -0.725,0 -1.16,-0.58 -1.16,-1.16 0,-0.58 0.58,-1.16 1.16,-1.16 0.725,0 1.16,0.58 1.16,1.16 0,0.58 -0.58,1.16 -1.16,1.16 z m 0,-4.93 c -2.03,0 -3.77,1.74 -3.77,3.77 0,0.435 0,0.87 0.145,1.16 l -12.325,6.525 c -0.725,-1.015 -1.885,-1.595 -3.045,-1.595 -1.45,0 -2.755,0.87 -3.335,2.03 l -11.0199996,-5.8 c -1.16,-0.58 -2.03,-2.61 -1.885,-4.35 0,-0.87 0.435,-1.595 0.87,-1.885 0.29,-0.145 0.725,-0.145 1.015,0 h 0.145 c 2.9,1.595 12.6149996,6.525 12.9049996,6.815 0.58,0.29 1.015,0.435 2.03,-0.145 l 19.865,-10.2949999 c 0.29,-0.145 0.58,-0.435 0.58,-0.87 0,-0.58 -0.58,-0.87 -0.58,-0.87 -1.16,-0.58 -2.9,-1.305 -4.495,-2.175 -3.625,-1.74 -7.685,-3.625 -9.57,-4.495002 -1.595,-0.8700002 -2.755,-0.145 -3.045,0 l -0.435,0.145 c -8.12,4.060002 -18.9949996,9.425002 -19.5749996,9.7150019 -1.16000002,0.725 -1.73999902,2.03 -1.88499902,3.625 -0.145,2.61 1.15999902,5.365 3.18999902,6.38 l 11.7449996,6.09 c 0.29,1.885 1.885,3.19 3.625,3.19 2.03,0 3.77,-1.595 3.77,-3.625 l 12.905,-6.96 c 0.725,0.58 1.45,0.725 2.32,0.725 2.03,0 3.77,-1.74 3.77,-3.77 -0.29,-1.74 -1.885,-3.335 -3.915,-3.335"
      fill="#ffffff"
      id="path17" />
</svg>
